<svg id="visual" viewBox="0 0 900 600" width="900" height="600" xmlns="http://www.w3.org/2000/svg" xmlns:xlink="http://www.w3.org/1999/xlink" version="1.1"><rect x="0" y="0" width="900" height="600" fill="#171821"></rect><defs><linearGradient id="grad1_0" x1="33.3%" y1="100%" x2="100%" y2="0%"><stop offset="20%" stop-color="#171821" stop-opacity="1"></stop><stop offset="80%" stop-color="#171821" stop-opacity="1"></stop></linearGradient></defs><defs><linearGradient id="grad2_0" x1="0%" y1="100%" x2="66.7%" y2="0%"><stop offset="20%" stop-color="#171821" stop-opacity="1"></stop><stop offset="80%" stop-color="#171821" stop-opacity="1"></stop></linearGradient></defs><g transform="translate(900, 600)"><path d="M-270.4 0C-263.7 -47.9 -256.9 -95.7 -234.2 -135.2C-211.4 -174.7 -172.7 -205.8 -131 -226.9C-89.3 -248 -44.7 -259.2 0 -270.4L0 0Z" fill="#ADDFD8"></path></g><g transform="translate(0, 0)"><path d="M270.4 0C258.8 44.4 247.1 88.8 226 130.5C205 172.2 174.5 211.3 135.2 234.2C96 257.1 48 263.7 0 270.4L0 0Z" fill="#ADDFD8"></path></g></svg>